<?xml version="1.0" encoding="UTF-8" standalone="no"?><!DOCTYPE svg PUBLIC "-//W3C//DTD SVG 1.1//EN" "http://www.w3.org/Graphics/SVG/1.1/DTD/svg11.dtd"><svg width="100%" height="100%" viewBox="0 0 1837 1837" version="1.1" xmlns="http://www.w3.org/2000/svg" xmlns:xlink="http://www.w3.org/1999/xlink" xml:space="preserve" xmlns:serif="http://www.serif.com/" style="fill-rule:evenodd;clip-rule:evenodd;stroke-linecap:round;stroke-linejoin:round;stroke-miterlimit:1.5;"><rect id="Artboard1" x="0" y="0" width="1837" height="1837" style="fill:none;"/><path d="M1778.321,492.608l0,862.161c0,237.92 -193.161,431.08 -431.08,431.08l-862.161,0c-237.92,0 -431.08,-193.161 -431.08,-431.08l0,-862.161c0,-237.92 193.161,-431.08 431.08,-431.08l862.161,0c237.92,0 431.08,193.161 431.08,431.08Z" style="fill:#d7d3d1;"/><circle cx="916.161" cy="923.688" r="588.992" style="fill:#1a07f2;"/><circle cx="916.161" cy="923.688" r="363.015" style="fill:#ff6900;"/><path d="M218.264,1099.751l1395.793,0" style="fill:none;stroke:#071184;stroke-width:58.33px;"/><path d="M218.264,1152.69c-29.218,0 -52.94,-23.721 -52.94,-52.94c-0,-29.218 23.721,-52.94 52.94,-52.94l1395.793,0c29.218,0 52.94,23.721 52.94,52.94c-0,29.218 -23.721,52.94 -52.94,52.94l-1395.793,0Z" style="fill:#071184;"/><path d="M622.119,1145.128l638.906,0l-101.644,190.583l-495.516,-29.041l-41.747,-161.542Z" style="fill:#1a07f2;"/></svg>